<svg version="1.1" xmlns="http://www.w3.org/2000/svg" xmlns:xlink="http://www.w3.org/1999/xlink" width="206" height="206" viewBox="0,0,206,206"><g transform="translate(-137,-77)"><g data-paper-data="{&quot;isPaintingLayer&quot;:true}" fill-rule="nonzero" stroke-linejoin="miter" stroke-miterlimit="10" stroke-dasharray="" stroke-dashoffset="0" style="mix-blend-mode: normal"><path d="M145.5,180c0,-52.19091 42.30909,-94.5 94.5,-94.5c52.19091,0 94.5,42.30909 94.5,94.5c0,52.19091 -42.30909,94.5 -94.5,94.5c-52.19091,0 -94.5,-42.30909 -94.5,-94.5z" fill="#ffffff" stroke="none" stroke-width="0" stroke-linecap="butt"/><g stroke="#000000"><path d="M292.85286,180.26864c0,-5.63895 4.57127,-10.21021 10.21021,-10.21021c5.63894,0 10.21021,4.57126 10.21021,10.21021c0,5.63895 -4.57127,10.21021 -10.21021,10.21021c-5.63894,0 -10.21021,-4.57127 -10.21021,-10.21021z" fill="#000000" stroke-width="5" stroke-linecap="butt"/><path d="M274.34685,178.76387c0,0 15.18002,-9.24271 28.71622,-9.24271c13.5362,0 28.71622,9.24271 28.71622,9.24271" fill="none" stroke-width="10" stroke-linecap="round"/></g><g stroke="#000000"><path d="M220.78079,180.26864c0,-5.63895 4.57126,-10.21021 10.21021,-10.21021c5.63895,0 10.21021,4.57126 10.21021,10.21021c0,5.63895 -4.57126,10.21021 -10.21021,10.21021c-5.63894,0 -10.21021,-4.57127 -10.21021,-10.21021z" fill="#000000" stroke-width="5" stroke-linecap="butt"/><path d="M202.27478,178.76387c0,0 15.18002,-9.24271 28.71622,-9.24271c13.5362,0 28.71622,9.24271 28.71622,9.24271" fill="none" stroke-width="10" stroke-linecap="round"/></g><path d="M321.84233,204.16414c0,0 -36.98786,14.71824 -75.07507,15.03608c-38.08721,0.31784 -69.06906,-13.83319 -69.06906,-13.83319" fill="none" stroke="#000000" stroke-width="10" stroke-linecap="round"/><path d="M148.5,161c0,0 -0.91356,56.25855 52.5,91.5c42.73881,28.19841 109.5,-11.5 109.5,-11.5c0,0 -39.55853,58.1918 -121,18c-50.56189,-24.95256 -41,-98 -41,-98z" fill="#c6c6c6" stroke="none" stroke-width="0" stroke-linecap="round"/><path d="M145.5,180c0,-52.19091 42.30909,-94.5 94.5,-94.5c52.19091,0 94.5,42.30909 94.5,94.5c0,52.19091 -42.30909,94.5 -94.5,94.5c-52.19091,0 -94.5,-42.30909 -94.5,-94.5z" fill="none" stroke="#000000" stroke-width="7.5" stroke-linecap="butt"/><path d="M137,283v-206h206v206z" fill="none" stroke="none" stroke-width="none" stroke-linecap="butt"/></g></g></svg>